<?xml version="1.0" encoding="utf-8" standalone="no"?>
<!DOCTYPE svg PUBLIC "-//W3C//DTD SVG 1.1//EN"
  "http://www.w3.org/Graphics/SVG/1.1/DTD/svg11.dtd">
<!-- Created with matplotlib (https://matplotlib.org/) -->
<svg height="648pt" version="1.1" viewBox="0 0 864 648" width="864pt" xmlns="http://www.w3.org/2000/svg" xmlns:xlink="http://www.w3.org/1999/xlink">
 <defs>
  <style type="text/css">
*{stroke-linecap:butt;stroke-linejoin:round;}
  </style>
 </defs>
 <g id="figure_1">
  <g id="patch_1">
   <path d="M 0 648 
L 864 648 
L 864 0 
L 0 0 
z
" style="fill:#ffffff;"/>
  </g>
  <g id="axes_1">
   <g id="patch_2">
    <path d="M 108 567 
L 777.6 567 
L 777.6 77.76 
L 108 77.76 
z
" style="fill:#ffffff;"/>
   </g>
   <g id="matplotlib.axis_1">
    <g id="xtick_1">
     <g id="line2d_1">
      <defs>
       <path d="M 0 0 
L 0 3.5 
" id="m7a109375fe" style="stroke:#000000;stroke-width:0.8;"/>
      </defs>
      <g>
       <use style="stroke:#000000;stroke-width:0.8;" x="138.436364" xlink:href="#m7a109375fe" y="567"/>
      </g>
     </g>
     <g id="text_1">
      <!-- 0.0 -->
      <defs>
       <path d="M 31.78125 66.40625 
Q 24.171875 66.40625 20.328125 58.90625 
Q 16.5 51.421875 16.5 36.375 
Q 16.5 21.390625 20.328125 13.890625 
Q 24.171875 6.390625 31.78125 6.390625 
Q 39.453125 6.390625 43.28125 13.890625 
Q 47.125 21.390625 47.125 36.375 
Q 47.125 51.421875 43.28125 58.90625 
Q 39.453125 66.40625 31.78125 66.40625 
z
M 31.78125 74.21875 
Q 44.046875 74.21875 50.515625 64.515625 
Q 56.984375 54.828125 56.984375 36.375 
Q 56.984375 17.96875 50.515625 8.265625 
Q 44.046875 -1.421875 31.78125 -1.421875 
Q 19.53125 -1.421875 13.0625 8.265625 
Q 6.59375 17.96875 6.59375 36.375 
Q 6.59375 54.828125 13.0625 64.515625 
Q 19.53125 74.21875 31.78125 74.21875 
z
" id="DejaVuSans-48"/>
       <path d="M 10.6875 12.40625 
L 21 12.40625 
L 21 0 
L 10.6875 0 
z
" id="DejaVuSans-46"/>
      </defs>
      <g transform="translate(130.484801 581.598438)scale(0.1 -0.1)">
       <use xlink:href="#DejaVuSans-48"/>
       <use x="63.623047" xlink:href="#DejaVuSans-46"/>
       <use x="95.410156" xlink:href="#DejaVuSans-48"/>
      </g>
     </g>
    </g>
    <g id="xtick_2">
     <g id="line2d_2">
      <g>
       <use style="stroke:#000000;stroke-width:0.8;" x="260.181818" xlink:href="#m7a109375fe" y="567"/>
      </g>
     </g>
     <g id="text_2">
      <!-- 0.2 -->
      <defs>
       <path d="M 19.1875 8.296875 
L 53.609375 8.296875 
L 53.609375 0 
L 7.328125 0 
L 7.328125 8.296875 
Q 12.9375 14.109375 22.625 23.890625 
Q 32.328125 33.6875 34.8125 36.53125 
Q 39.546875 41.84375 41.421875 45.53125 
Q 43.3125 49.21875 43.3125 52.78125 
Q 43.3125 58.59375 39.234375 62.25 
Q 35.15625 65.921875 28.609375 65.921875 
Q 23.96875 65.921875 18.8125 64.3125 
Q 13.671875 62.703125 7.8125 59.421875 
L 7.8125 69.390625 
Q 13.765625 71.78125 18.9375 73 
Q 24.125 74.21875 28.421875 74.21875 
Q 39.75 74.21875 46.484375 68.546875 
Q 53.21875 62.890625 53.21875 53.421875 
Q 53.21875 48.921875 51.53125 44.890625 
Q 49.859375 40.875 45.40625 35.40625 
Q 44.1875 33.984375 37.640625 27.21875 
Q 31.109375 20.453125 19.1875 8.296875 
z
" id="DejaVuSans-50"/>
      </defs>
      <g transform="translate(252.230256 581.598438)scale(0.1 -0.1)">
       <use xlink:href="#DejaVuSans-48"/>
       <use x="63.623047" xlink:href="#DejaVuSans-46"/>
       <use x="95.410156" xlink:href="#DejaVuSans-50"/>
      </g>
     </g>
    </g>
    <g id="xtick_3">
     <g id="line2d_3">
      <g>
       <use style="stroke:#000000;stroke-width:0.8;" x="381.927273" xlink:href="#m7a109375fe" y="567"/>
      </g>
     </g>
     <g id="text_3">
      <!-- 0.4 -->
      <defs>
       <path d="M 37.796875 64.3125 
L 12.890625 25.390625 
L 37.796875 25.390625 
z
M 35.203125 72.90625 
L 47.609375 72.90625 
L 47.609375 25.390625 
L 58.015625 25.390625 
L 58.015625 17.1875 
L 47.609375 17.1875 
L 47.609375 0 
L 37.796875 0 
L 37.796875 17.1875 
L 4.890625 17.1875 
L 4.890625 26.703125 
z
" id="DejaVuSans-52"/>
      </defs>
      <g transform="translate(373.97571 581.598438)scale(0.1 -0.1)">
       <use xlink:href="#DejaVuSans-48"/>
       <use x="63.623047" xlink:href="#DejaVuSans-46"/>
       <use x="95.410156" xlink:href="#DejaVuSans-52"/>
      </g>
     </g>
    </g>
    <g id="xtick_4">
     <g id="line2d_4">
      <g>
       <use style="stroke:#000000;stroke-width:0.8;" x="503.672727" xlink:href="#m7a109375fe" y="567"/>
      </g>
     </g>
     <g id="text_4">
      <!-- 0.6 -->
      <defs>
       <path d="M 33.015625 40.375 
Q 26.375 40.375 22.484375 35.828125 
Q 18.609375 31.296875 18.609375 23.390625 
Q 18.609375 15.53125 22.484375 10.953125 
Q 26.375 6.390625 33.015625 6.390625 
Q 39.65625 6.390625 43.53125 10.953125 
Q 47.40625 15.53125 47.40625 23.390625 
Q 47.40625 31.296875 43.53125 35.828125 
Q 39.65625 40.375 33.015625 40.375 
z
M 52.59375 71.296875 
L 52.59375 62.3125 
Q 48.875 64.0625 45.09375 64.984375 
Q 41.3125 65.921875 37.59375 65.921875 
Q 27.828125 65.921875 22.671875 59.328125 
Q 17.53125 52.734375 16.796875 39.40625 
Q 19.671875 43.65625 24.015625 45.921875 
Q 28.375 48.1875 33.59375 48.1875 
Q 44.578125 48.1875 50.953125 41.515625 
Q 57.328125 34.859375 57.328125 23.390625 
Q 57.328125 12.15625 50.6875 5.359375 
Q 44.046875 -1.421875 33.015625 -1.421875 
Q 20.359375 -1.421875 13.671875 8.265625 
Q 6.984375 17.96875 6.984375 36.375 
Q 6.984375 53.65625 15.1875 63.9375 
Q 23.390625 74.21875 37.203125 74.21875 
Q 40.921875 74.21875 44.703125 73.484375 
Q 48.484375 72.75 52.59375 71.296875 
z
" id="DejaVuSans-54"/>
      </defs>
      <g transform="translate(495.721165 581.598438)scale(0.1 -0.1)">
       <use xlink:href="#DejaVuSans-48"/>
       <use x="63.623047" xlink:href="#DejaVuSans-46"/>
       <use x="95.410156" xlink:href="#DejaVuSans-54"/>
      </g>
     </g>
    </g>
    <g id="xtick_5">
     <g id="line2d_5">
      <g>
       <use style="stroke:#000000;stroke-width:0.8;" x="625.418182" xlink:href="#m7a109375fe" y="567"/>
      </g>
     </g>
     <g id="text_5">
      <!-- 0.8 -->
      <defs>
       <path d="M 31.78125 34.625 
Q 24.75 34.625 20.71875 30.859375 
Q 16.703125 27.09375 16.703125 20.515625 
Q 16.703125 13.921875 20.71875 10.15625 
Q 24.75 6.390625 31.78125 6.390625 
Q 38.8125 6.390625 42.859375 10.171875 
Q 46.921875 13.96875 46.921875 20.515625 
Q 46.921875 27.09375 42.890625 30.859375 
Q 38.875 34.625 31.78125 34.625 
z
M 21.921875 38.8125 
Q 15.578125 40.375 12.03125 44.71875 
Q 8.5 49.078125 8.5 55.328125 
Q 8.5 64.0625 14.71875 69.140625 
Q 20.953125 74.21875 31.78125 74.21875 
Q 42.671875 74.21875 48.875 69.140625 
Q 55.078125 64.0625 55.078125 55.328125 
Q 55.078125 49.078125 51.53125 44.71875 
Q 48 40.375 41.703125 38.8125 
Q 48.828125 37.15625 52.796875 32.3125 
Q 56.78125 27.484375 56.78125 20.515625 
Q 56.78125 9.90625 50.3125 4.234375 
Q 43.84375 -1.421875 31.78125 -1.421875 
Q 19.734375 -1.421875 13.25 4.234375 
Q 6.78125 9.90625 6.78125 20.515625 
Q 6.78125 27.484375 10.78125 32.3125 
Q 14.796875 37.15625 21.921875 38.8125 
z
M 18.3125 54.390625 
Q 18.3125 48.734375 21.84375 45.5625 
Q 25.390625 42.390625 31.78125 42.390625 
Q 38.140625 42.390625 41.71875 45.5625 
Q 45.3125 48.734375 45.3125 54.390625 
Q 45.3125 60.0625 41.71875 63.234375 
Q 38.140625 66.40625 31.78125 66.40625 
Q 25.390625 66.40625 21.84375 63.234375 
Q 18.3125 60.0625 18.3125 54.390625 
z
" id="DejaVuSans-56"/>
      </defs>
      <g transform="translate(617.466619 581.598438)scale(0.1 -0.1)">
       <use xlink:href="#DejaVuSans-48"/>
       <use x="63.623047" xlink:href="#DejaVuSans-46"/>
       <use x="95.410156" xlink:href="#DejaVuSans-56"/>
      </g>
     </g>
    </g>
    <g id="xtick_6">
     <g id="line2d_6">
      <g>
       <use style="stroke:#000000;stroke-width:0.8;" x="747.163636" xlink:href="#m7a109375fe" y="567"/>
      </g>
     </g>
     <g id="text_6">
      <!-- 1.0 -->
      <defs>
       <path d="M 12.40625 8.296875 
L 28.515625 8.296875 
L 28.515625 63.921875 
L 10.984375 60.40625 
L 10.984375 69.390625 
L 28.421875 72.90625 
L 38.28125 72.90625 
L 38.28125 8.296875 
L 54.390625 8.296875 
L 54.390625 0 
L 12.40625 0 
z
" id="DejaVuSans-49"/>
      </defs>
      <g transform="translate(739.212074 581.598438)scale(0.1 -0.1)">
       <use xlink:href="#DejaVuSans-49"/>
       <use x="63.623047" xlink:href="#DejaVuSans-46"/>
       <use x="95.410156" xlink:href="#DejaVuSans-48"/>
      </g>
     </g>
    </g>
    <g id="text_7">
     <!-- False Positive Rate -->
     <defs>
      <path d="M 9.8125 72.90625 
L 51.703125 72.90625 
L 51.703125 64.59375 
L 19.671875 64.59375 
L 19.671875 43.109375 
L 48.578125 43.109375 
L 48.578125 34.8125 
L 19.671875 34.8125 
L 19.671875 0 
L 9.8125 0 
z
" id="DejaVuSans-70"/>
      <path d="M 34.28125 27.484375 
Q 23.390625 27.484375 19.1875 25 
Q 14.984375 22.515625 14.984375 16.5 
Q 14.984375 11.71875 18.140625 8.90625 
Q 21.296875 6.109375 26.703125 6.109375 
Q 34.1875 6.109375 38.703125 11.40625 
Q 43.21875 16.703125 43.21875 25.484375 
L 43.21875 27.484375 
z
M 52.203125 31.203125 
L 52.203125 0 
L 43.21875 0 
L 43.21875 8.296875 
Q 40.140625 3.328125 35.546875 0.953125 
Q 30.953125 -1.421875 24.3125 -1.421875 
Q 15.921875 -1.421875 10.953125 3.296875 
Q 6 8.015625 6 15.921875 
Q 6 25.140625 12.171875 29.828125 
Q 18.359375 34.515625 30.609375 34.515625 
L 43.21875 34.515625 
L 43.21875 35.40625 
Q 43.21875 41.609375 39.140625 45 
Q 35.0625 48.390625 27.6875 48.390625 
Q 23 48.390625 18.546875 47.265625 
Q 14.109375 46.140625 10.015625 43.890625 
L 10.015625 52.203125 
Q 14.9375 54.109375 19.578125 55.046875 
Q 24.21875 56 28.609375 56 
Q 40.484375 56 46.34375 49.84375 
Q 52.203125 43.703125 52.203125 31.203125 
z
" id="DejaVuSans-97"/>
      <path d="M 9.421875 75.984375 
L 18.40625 75.984375 
L 18.40625 0 
L 9.421875 0 
z
" id="DejaVuSans-108"/>
      <path d="M 44.28125 53.078125 
L 44.28125 44.578125 
Q 40.484375 46.53125 36.375 47.5 
Q 32.28125 48.484375 27.875 48.484375 
Q 21.1875 48.484375 17.84375 46.4375 
Q 14.5 44.390625 14.5 40.28125 
Q 14.5 37.15625 16.890625 35.375 
Q 19.28125 33.59375 26.515625 31.984375 
L 29.59375 31.296875 
Q 39.15625 29.25 43.1875 25.515625 
Q 47.21875 21.78125 47.21875 15.09375 
Q 47.21875 7.46875 41.1875 3.015625 
Q 35.15625 -1.421875 24.609375 -1.421875 
Q 20.21875 -1.421875 15.453125 -0.5625 
Q 10.6875 0.296875 5.421875 2 
L 5.421875 11.28125 
Q 10.40625 8.6875 15.234375 7.390625 
Q 20.0625 6.109375 24.8125 6.109375 
Q 31.15625 6.109375 34.5625 8.28125 
Q 37.984375 10.453125 37.984375 14.40625 
Q 37.984375 18.0625 35.515625 20.015625 
Q 33.0625 21.96875 24.703125 23.78125 
L 21.578125 24.515625 
Q 13.234375 26.265625 9.515625 29.90625 
Q 5.8125 33.546875 5.8125 39.890625 
Q 5.8125 47.609375 11.28125 51.796875 
Q 16.75 56 26.8125 56 
Q 31.78125 56 36.171875 55.265625 
Q 40.578125 54.546875 44.28125 53.078125 
z
" id="DejaVuSans-115"/>
      <path d="M 56.203125 29.59375 
L 56.203125 25.203125 
L 14.890625 25.203125 
Q 15.484375 15.921875 20.484375 11.0625 
Q 25.484375 6.203125 34.421875 6.203125 
Q 39.59375 6.203125 44.453125 7.46875 
Q 49.3125 8.734375 54.109375 11.28125 
L 54.109375 2.78125 
Q 49.265625 0.734375 44.1875 -0.34375 
Q 39.109375 -1.421875 33.890625 -1.421875 
Q 20.796875 -1.421875 13.15625 6.1875 
Q 5.515625 13.8125 5.515625 26.8125 
Q 5.515625 40.234375 12.765625 48.109375 
Q 20.015625 56 32.328125 56 
Q 43.359375 56 49.78125 48.890625 
Q 56.203125 41.796875 56.203125 29.59375 
z
M 47.21875 32.234375 
Q 47.125 39.59375 43.09375 43.984375 
Q 39.0625 48.390625 32.421875 48.390625 
Q 24.90625 48.390625 20.390625 44.140625 
Q 15.875 39.890625 15.1875 32.171875 
z
" id="DejaVuSans-101"/>
      <path id="DejaVuSans-32"/>
      <path d="M 19.671875 64.796875 
L 19.671875 37.40625 
L 32.078125 37.40625 
Q 38.96875 37.40625 42.71875 40.96875 
Q 46.484375 44.53125 46.484375 51.125 
Q 46.484375 57.671875 42.71875 61.234375 
Q 38.96875 64.796875 32.078125 64.796875 
z
M 9.8125 72.90625 
L 32.078125 72.90625 
Q 44.34375 72.90625 50.609375 67.359375 
Q 56.890625 61.8125 56.890625 51.125 
Q 56.890625 40.328125 50.609375 34.8125 
Q 44.34375 29.296875 32.078125 29.296875 
L 19.671875 29.296875 
L 19.671875 0 
L 9.8125 0 
z
" id="DejaVuSans-80"/>
      <path d="M 30.609375 48.390625 
Q 23.390625 48.390625 19.1875 42.75 
Q 14.984375 37.109375 14.984375 27.296875 
Q 14.984375 17.484375 19.15625 11.84375 
Q 23.34375 6.203125 30.609375 6.203125 
Q 37.796875 6.203125 41.984375 11.859375 
Q 46.1875 17.53125 46.1875 27.296875 
Q 46.1875 37.015625 41.984375 42.703125 
Q 37.796875 48.390625 30.609375 48.390625 
z
M 30.609375 56 
Q 42.328125 56 49.015625 48.375 
Q 55.71875 40.765625 55.71875 27.296875 
Q 55.71875 13.875 49.015625 6.21875 
Q 42.328125 -1.421875 30.609375 -1.421875 
Q 18.84375 -1.421875 12.171875 6.21875 
Q 5.515625 13.875 5.515625 27.296875 
Q 5.515625 40.765625 12.171875 48.375 
Q 18.84375 56 30.609375 56 
z
" id="DejaVuSans-111"/>
      <path d="M 9.421875 54.6875 
L 18.40625 54.6875 
L 18.40625 0 
L 9.421875 0 
z
M 9.421875 75.984375 
L 18.40625 75.984375 
L 18.40625 64.59375 
L 9.421875 64.59375 
z
" id="DejaVuSans-105"/>
      <path d="M 18.3125 70.21875 
L 18.3125 54.6875 
L 36.8125 54.6875 
L 36.8125 47.703125 
L 18.3125 47.703125 
L 18.3125 18.015625 
Q 18.3125 11.328125 20.140625 9.421875 
Q 21.96875 7.515625 27.59375 7.515625 
L 36.8125 7.515625 
L 36.8125 0 
L 27.59375 0 
Q 17.1875 0 13.234375 3.875 
Q 9.28125 7.765625 9.28125 18.015625 
L 9.28125 47.703125 
L 2.6875 47.703125 
L 2.6875 54.6875 
L 9.28125 54.6875 
L 9.28125 70.21875 
z
" id="DejaVuSans-116"/>
      <path d="M 2.984375 54.6875 
L 12.5 54.6875 
L 29.59375 8.796875 
L 46.6875 54.6875 
L 56.203125 54.6875 
L 35.6875 0 
L 23.484375 0 
z
" id="DejaVuSans-118"/>
      <path d="M 44.390625 34.1875 
Q 47.5625 33.109375 50.5625 29.59375 
Q 53.5625 26.078125 56.59375 19.921875 
L 66.609375 0 
L 56 0 
L 46.6875 18.703125 
Q 43.0625 26.03125 39.671875 28.421875 
Q 36.28125 30.8125 30.421875 30.8125 
L 19.671875 30.8125 
L 19.671875 0 
L 9.8125 0 
L 9.8125 72.90625 
L 32.078125 72.90625 
Q 44.578125 72.90625 50.734375 67.671875 
Q 56.890625 62.453125 56.890625 51.90625 
Q 56.890625 45.015625 53.6875 40.46875 
Q 50.484375 35.9375 44.390625 34.1875 
z
M 19.671875 64.796875 
L 19.671875 38.921875 
L 32.078125 38.921875 
Q 39.203125 38.921875 42.84375 42.21875 
Q 46.484375 45.515625 46.484375 51.90625 
Q 46.484375 58.296875 42.84375 61.546875 
Q 39.203125 64.796875 32.078125 64.796875 
z
" id="DejaVuSans-82"/>
     </defs>
     <g transform="translate(376.712344 598.315938)scale(0.14 -0.14)">
      <use xlink:href="#DejaVuSans-70"/>
      <use x="57.378906" xlink:href="#DejaVuSans-97"/>
      <use x="118.658203" xlink:href="#DejaVuSans-108"/>
      <use x="146.441406" xlink:href="#DejaVuSans-115"/>
      <use x="198.541016" xlink:href="#DejaVuSans-101"/>
      <use x="260.064453" xlink:href="#DejaVuSans-32"/>
      <use x="291.851562" xlink:href="#DejaVuSans-80"/>
      <use x="352.107422" xlink:href="#DejaVuSans-111"/>
      <use x="413.289062" xlink:href="#DejaVuSans-115"/>
      <use x="465.388672" xlink:href="#DejaVuSans-105"/>
      <use x="493.171875" xlink:href="#DejaVuSans-116"/>
      <use x="532.380859" xlink:href="#DejaVuSans-105"/>
      <use x="560.164062" xlink:href="#DejaVuSans-118"/>
      <use x="619.34375" xlink:href="#DejaVuSans-101"/>
      <use x="680.867188" xlink:href="#DejaVuSans-32"/>
      <use x="712.654297" xlink:href="#DejaVuSans-82"/>
      <use x="782.105469" xlink:href="#DejaVuSans-97"/>
      <use x="843.384766" xlink:href="#DejaVuSans-116"/>
      <use x="882.59375" xlink:href="#DejaVuSans-101"/>
     </g>
    </g>
   </g>
   <g id="matplotlib.axis_2">
    <g id="ytick_1">
     <g id="line2d_7">
      <defs>
       <path d="M 0 0 
L -3.5 0 
" id="m4adb1fe54f" style="stroke:#000000;stroke-width:0.8;"/>
      </defs>
      <g>
       <use style="stroke:#000000;stroke-width:0.8;" x="108" xlink:href="#m4adb1fe54f" y="544.761818"/>
      </g>
     </g>
     <g id="text_8">
      <!-- 0.0 -->
      <g transform="translate(85.096875 548.561037)scale(0.1 -0.1)">
       <use xlink:href="#DejaVuSans-48"/>
       <use x="63.623047" xlink:href="#DejaVuSans-46"/>
       <use x="95.410156" xlink:href="#DejaVuSans-48"/>
      </g>
     </g>
    </g>
    <g id="ytick_2">
     <g id="line2d_8">
      <g>
       <use style="stroke:#000000;stroke-width:0.8;" x="108" xlink:href="#m4adb1fe54f" y="455.809091"/>
      </g>
     </g>
     <g id="text_9">
      <!-- 0.2 -->
      <g transform="translate(85.096875 459.60831)scale(0.1 -0.1)">
       <use xlink:href="#DejaVuSans-48"/>
       <use x="63.623047" xlink:href="#DejaVuSans-46"/>
       <use x="95.410156" xlink:href="#DejaVuSans-50"/>
      </g>
     </g>
    </g>
    <g id="ytick_3">
     <g id="line2d_9">
      <g>
       <use style="stroke:#000000;stroke-width:0.8;" x="108" xlink:href="#m4adb1fe54f" y="366.856364"/>
      </g>
     </g>
     <g id="text_10">
      <!-- 0.4 -->
      <g transform="translate(85.096875 370.655582)scale(0.1 -0.1)">
       <use xlink:href="#DejaVuSans-48"/>
       <use x="63.623047" xlink:href="#DejaVuSans-46"/>
       <use x="95.410156" xlink:href="#DejaVuSans-52"/>
      </g>
     </g>
    </g>
    <g id="ytick_4">
     <g id="line2d_10">
      <g>
       <use style="stroke:#000000;stroke-width:0.8;" x="108" xlink:href="#m4adb1fe54f" y="277.903636"/>
      </g>
     </g>
     <g id="text_11">
      <!-- 0.6 -->
      <g transform="translate(85.096875 281.702855)scale(0.1 -0.1)">
       <use xlink:href="#DejaVuSans-48"/>
       <use x="63.623047" xlink:href="#DejaVuSans-46"/>
       <use x="95.410156" xlink:href="#DejaVuSans-54"/>
      </g>
     </g>
    </g>
    <g id="ytick_5">
     <g id="line2d_11">
      <g>
       <use style="stroke:#000000;stroke-width:0.8;" x="108" xlink:href="#m4adb1fe54f" y="188.950909"/>
      </g>
     </g>
     <g id="text_12">
      <!-- 0.8 -->
      <g transform="translate(85.096875 192.750128)scale(0.1 -0.1)">
       <use xlink:href="#DejaVuSans-48"/>
       <use x="63.623047" xlink:href="#DejaVuSans-46"/>
       <use x="95.410156" xlink:href="#DejaVuSans-56"/>
      </g>
     </g>
    </g>
    <g id="ytick_6">
     <g id="line2d_12">
      <g>
       <use style="stroke:#000000;stroke-width:0.8;" x="108" xlink:href="#m4adb1fe54f" y="99.998182"/>
      </g>
     </g>
     <g id="text_13">
      <!-- 1.0 -->
      <g transform="translate(85.096875 103.797401)scale(0.1 -0.1)">
       <use xlink:href="#DejaVuSans-49"/>
       <use x="63.623047" xlink:href="#DejaVuSans-46"/>
       <use x="95.410156" xlink:href="#DejaVuSans-48"/>
      </g>
     </g>
    </g>
    <g id="text_14">
     <!-- True Positive Rate -->
     <defs>
      <path d="M -0.296875 72.90625 
L 61.375 72.90625 
L 61.375 64.59375 
L 35.5 64.59375 
L 35.5 0 
L 25.59375 0 
L 25.59375 64.59375 
L -0.296875 64.59375 
z
" id="DejaVuSans-84"/>
      <path d="M 41.109375 46.296875 
Q 39.59375 47.171875 37.8125 47.578125 
Q 36.03125 48 33.890625 48 
Q 26.265625 48 22.1875 43.046875 
Q 18.109375 38.09375 18.109375 28.8125 
L 18.109375 0 
L 9.078125 0 
L 9.078125 54.6875 
L 18.109375 54.6875 
L 18.109375 46.1875 
Q 20.953125 51.171875 25.484375 53.578125 
Q 30.03125 56 36.53125 56 
Q 37.453125 56 38.578125 55.875 
Q 39.703125 55.765625 41.0625 55.515625 
z
" id="DejaVuSans-114"/>
      <path d="M 8.5 21.578125 
L 8.5 54.6875 
L 17.484375 54.6875 
L 17.484375 21.921875 
Q 17.484375 14.15625 20.5 10.265625 
Q 23.53125 6.390625 29.59375 6.390625 
Q 36.859375 6.390625 41.078125 11.03125 
Q 45.3125 15.671875 45.3125 23.6875 
L 45.3125 54.6875 
L 54.296875 54.6875 
L 54.296875 0 
L 45.3125 0 
L 45.3125 8.40625 
Q 42.046875 3.421875 37.71875 1 
Q 33.40625 -1.421875 27.6875 -1.421875 
Q 18.265625 -1.421875 13.375 4.4375 
Q 8.5 10.296875 8.5 21.578125 
z
M 31.109375 56 
z
" id="DejaVuSans-117"/>
     </defs>
     <g transform="translate(78.185312 386.144531)rotate(-90)scale(0.14 -0.14)">
      <use xlink:href="#DejaVuSans-84"/>
      <use x="60.865234" xlink:href="#DejaVuSans-114"/>
      <use x="101.978516" xlink:href="#DejaVuSans-117"/>
      <use x="165.357422" xlink:href="#DejaVuSans-101"/>
      <use x="226.880859" xlink:href="#DejaVuSans-32"/>
      <use x="258.667969" xlink:href="#DejaVuSans-80"/>
      <use x="318.923828" xlink:href="#DejaVuSans-111"/>
      <use x="380.105469" xlink:href="#DejaVuSans-115"/>
      <use x="432.205078" xlink:href="#DejaVuSans-105"/>
      <use x="459.988281" xlink:href="#DejaVuSans-116"/>
      <use x="499.197266" xlink:href="#DejaVuSans-105"/>
      <use x="526.980469" xlink:href="#DejaVuSans-118"/>
      <use x="586.160156" xlink:href="#DejaVuSans-101"/>
      <use x="647.683594" xlink:href="#DejaVuSans-32"/>
      <use x="679.470703" xlink:href="#DejaVuSans-82"/>
      <use x="748.921875" xlink:href="#DejaVuSans-97"/>
      <use x="810.201172" xlink:href="#DejaVuSans-116"/>
      <use x="849.410156" xlink:href="#DejaVuSans-101"/>
     </g>
    </g>
   </g>
   <g id="line2d_13">
    <path clip-path="url(#pbee22e8e78)" d="M 138.436364 544.761818 
L 138.436364 498.951164 
L 139.045091 498.951164 
L 139.045091 419.783236 
L 139.653818 419.783236 
L 139.653818 408.219382 
L 140.262545 408.219382 
L 140.262545 366.4116 
L 140.871273 366.4116 
L 140.871273 365.077309 
L 141.48 365.077309 
L 141.48 337.946727 
L 142.088727 337.946727 
L 142.088727 330.385745 
L 142.697455 330.385745 
L 142.697455 317.932364 
L 143.306182 317.932364 
L 143.306182 300.586582 
L 143.914909 300.586582 
L 143.914909 280.572218 
L 144.523636 280.572218 
L 144.523636 261.002618 
L 145.132364 261.002618 
L 145.132364 255.665455 
L 145.741091 255.665455 
L 145.741091 254.331164 
L 146.958545 254.331164 
L 146.958545 247.214945 
L 147.567273 247.214945 
L 147.567273 232.092982 
L 148.176 232.092982 
L 148.176 230.758691 
L 150.002182 230.758691 
L 150.002182 229.4244 
L 150.610909 229.4244 
L 150.610909 225.421527 
L 151.219636 225.421527 
L 151.219636 220.084364 
L 151.828364 220.084364 
L 151.828364 219.194836 
L 152.437091 219.194836 
L 152.437091 216.971018 
L 153.045818 216.971018 
L 153.045818 215.191964 
L 153.654545 215.191964 
L 153.654545 212.523382 
L 154.263273 212.523382 
L 154.263273 211.633855 
L 154.872 211.633855 
L 154.872 210.299564 
L 156.089455 210.299564 
L 156.089455 200.07 
L 156.698182 200.07 
L 156.698182 199.625236 
L 157.306909 199.625236 
L 157.306909 197.846182 
L 157.915636 197.846182 
L 157.915636 197.401418 
L 158.524364 197.401418 
L 158.524364 195.1776 
L 159.741818 195.1776 
L 159.741818 192.953782 
L 160.350545 192.953782 
L 160.350545 188.950909 
L 160.959273 188.950909 
L 160.959273 188.506145 
L 161.568 188.506145 
L 161.568 183.613745 
L 162.176727 183.613745 
L 162.176727 181.834691 
L 162.785455 181.834691 
L 162.785455 174.718473 
L 163.394182 174.718473 
L 163.394182 172.494655 
L 164.002909 172.494655 
L 164.002909 162.265091 
L 165.220364 162.265091 
L 165.220364 160.9308 
L 165.829091 160.9308 
L 165.829091 160.041273 
L 166.437818 160.041273 
L 166.437818 158.706982 
L 167.046545 158.706982 
L 167.046545 158.262218 
L 167.655273 158.262218 
L 167.655273 156.483164 
L 168.264 156.483164 
L 168.264 156.0384 
L 169.481455 156.0384 
L 169.481455 155.593636 
L 170.090182 155.593636 
L 170.090182 152.925055 
L 170.698909 152.925055 
L 170.698909 152.480291 
L 171.916364 152.480291 
L 171.916364 152.035527 
L 173.133818 152.035527 
L 173.133818 150.256473 
L 173.742545 150.256473 
L 173.742545 149.811709 
L 176.177455 149.811709 
L 176.177455 148.477418 
L 177.394909 148.477418 
L 177.394909 148.032655 
L 178.003636 148.032655 
L 178.003636 147.587891 
L 178.612364 147.587891 
L 178.612364 146.2536 
L 179.221091 146.2536 
L 179.221091 144.029782 
L 180.438545 144.029782 
L 180.438545 143.585018 
L 182.264727 143.585018 
L 182.264727 142.250727 
L 183.482182 142.250727 
L 183.482182 141.3612 
L 184.090909 141.3612 
L 184.090909 140.471673 
L 185.308364 140.471673 
L 185.308364 139.137382 
L 185.917091 139.137382 
L 185.917091 138.692618 
L 194.439273 138.692618 
L 194.439273 138.247855 
L 197.482909 138.247855 
L 197.482909 137.803091 
L 198.091636 137.803091 
L 198.091636 137.358327 
L 198.700364 137.358327 
L 198.700364 136.913564 
L 199.309091 136.913564 
L 199.309091 136.024036 
L 200.526545 136.024036 
L 200.526545 135.579273 
L 201.744 135.579273 
L 201.744 135.134509 
L 206.005091 135.134509 
L 206.005091 134.689745 
L 207.222545 134.689745 
L 207.222545 133.355455 
L 207.831273 133.355455 
L 207.831273 132.910691 
L 210.266182 132.910691 
L 210.266182 132.465927 
L 210.874909 132.465927 
L 210.874909 131.5764 
L 211.483636 131.5764 
L 211.483636 131.131636 
L 213.309818 131.131636 
L 213.309818 130.686873 
L 213.918545 130.686873 
L 213.918545 130.242109 
L 215.136 130.242109 
L 215.136 129.797345 
L 215.744727 129.797345 
L 215.744727 129.352582 
L 216.962182 129.352582 
L 216.962182 128.907818 
L 217.570909 128.907818 
L 217.570909 128.018291 
L 222.440727 128.018291 
L 222.440727 127.573527 
L 223.049455 127.573527 
L 223.049455 127.128764 
L 224.875636 127.128764 
L 224.875636 126.684 
L 225.484364 126.684 
L 225.484364 126.239236 
L 226.093091 126.239236 
L 226.093091 125.794473 
L 229.136727 125.794473 
L 229.136727 125.349709 
L 230.354182 125.349709 
L 230.354182 124.904945 
L 231.571636 124.904945 
L 231.571636 124.460182 
L 232.789091 124.460182 
L 232.789091 123.570655 
L 235.832727 123.570655 
L 235.832727 123.125891 
L 237.658909 123.125891 
L 237.658909 122.236364 
L 239.485091 122.236364 
L 239.485091 121.7916 
L 242.528727 121.7916 
L 242.528727 121.346836 
L 244.354909 121.346836 
L 244.354909 120.902073 
L 244.963636 120.902073 
L 244.963636 120.457309 
L 246.181091 120.457309 
L 246.181091 119.567782 
L 246.789818 119.567782 
L 246.789818 119.123018 
L 248.007273 119.123018 
L 248.007273 118.678255 
L 248.616 118.678255 
L 248.616 118.233491 
L 249.224727 118.233491 
L 249.224727 117.343964 
L 249.833455 117.343964 
L 249.833455 116.8992 
L 251.659636 116.8992 
L 251.659636 116.454436 
L 254.703273 116.454436 
L 254.703273 116.009673 
L 255.312 116.009673 
L 255.312 115.564909 
L 258.355636 115.564909 
L 258.355636 115.120145 
L 262.008 115.120145 
L 262.008 114.230618 
L 263.834182 114.230618 
L 263.834182 113.341091 
L 268.095273 113.341091 
L 268.095273 112.896327 
L 283.922182 112.896327 
L 283.922182 112.451564 
L 285.748364 112.451564 
L 285.748364 112.0068 
L 286.965818 112.0068 
L 286.965818 111.562036 
L 293.661818 111.562036 
L 293.661818 111.117273 
L 300.357818 111.117273 
L 300.357818 110.672509 
L 300.966545 110.672509 
L 300.966545 110.227745 
L 305.836364 110.227745 
L 305.836364 109.782982 
L 307.662545 109.782982 
L 307.662545 109.338218 
L 330.794182 109.338218 
L 330.794182 108.893455 
L 335.055273 108.893455 
L 335.055273 108.448691 
L 336.272727 108.448691 
L 336.272727 108.003927 
L 339.925091 108.003927 
L 339.925091 107.559164 
L 341.142545 107.559164 
L 341.142545 107.1144 
L 346.621091 107.1144 
L 346.621091 106.669636 
L 355.143273 106.669636 
L 355.143273 106.224873 
L 375.231273 106.224873 
L 375.231273 105.780109 
L 377.057455 105.780109 
L 377.057455 105.335345 
L 403.841455 105.335345 
L 403.841455 104.890582 
L 428.799273 104.890582 
L 428.799273 104.445818 
L 432.451636 104.445818 
L 432.451636 104.001055 
L 464.105455 104.001055 
L 464.105455 103.556291 
L 482.976 103.556291 
L 482.976 103.111527 
L 487.845818 103.111527 
L 487.845818 102.666764 
L 492.715636 102.666764 
L 492.715636 102.222 
L 497.585455 102.222 
L 497.585455 101.777236 
L 509.76 101.777236 
L 509.76 101.332473 
L 517.064727 101.332473 
L 517.064727 100.887709 
L 546.283636 100.887709 
L 546.283636 100.442945 
L 583.416 100.442945 
L 583.416 99.998182 
L 747.163636 99.998182 
L 747.163636 99.998182 
" style="fill:none;stroke:#ff0000;stroke-linecap:square;stroke-width:1.5;"/>
   </g>
   <g id="line2d_14">
    <path clip-path="url(#pbee22e8e78)" d="M 138.436364 544.761818 
L 138.436364 502.954036 
L 139.045091 502.954036 
L 139.045091 416.669891 
L 139.653818 416.669891 
L 139.653818 390.8736 
L 140.262545 390.8736 
L 140.262545 373.527818 
L 140.871273 373.527818 
L 140.871273 362.853491 
L 141.48 362.853491 
L 141.48 354.402982 
L 142.088727 354.402982 
L 142.088727 342.839127 
L 142.697455 342.839127 
L 142.697455 337.0572 
L 143.306182 337.0572 
L 143.306182 327.2724 
L 143.914909 327.2724 
L 143.914909 323.269527 
L 144.523636 323.269527 
L 144.523636 318.377127 
L 145.132364 318.377127 
L 145.132364 309.926618 
L 145.741091 309.926618 
L 145.741091 304.144691 
L 146.349818 304.144691 
L 146.349818 301.920873 
L 146.958545 301.920873 
L 146.958545 300.141818 
L 147.567273 300.141818 
L 147.567273 295.249418 
L 148.176 295.249418 
L 148.176 294.804655 
L 148.784727 294.804655 
L 148.784727 293.915127 
L 149.393455 293.915127 
L 149.393455 293.0256 
L 150.002182 293.0256 
L 150.002182 291.691309 
L 150.610909 291.691309 
L 150.610909 290.801782 
L 151.219636 290.801782 
L 151.219636 281.016982 
L 151.828364 281.016982 
L 151.828364 278.3484 
L 153.045818 278.3484 
L 153.045818 277.903636 
L 153.654545 277.903636 
L 153.654545 277.014109 
L 154.263273 277.014109 
L 154.263273 274.790291 
L 154.872 274.790291 
L 154.872 273.011236 
L 156.089455 273.011236 
L 156.089455 271.232182 
L 156.698182 271.232182 
L 156.698182 269.008364 
L 157.306909 269.008364 
L 157.306909 266.339782 
L 157.915636 266.339782 
L 157.915636 264.560727 
L 158.524364 264.560727 
L 158.524364 263.6712 
L 159.133091 263.6712 
L 159.133091 261.892145 
L 159.741818 261.892145 
L 159.741818 260.557855 
L 161.568 260.557855 
L 161.568 259.668327 
L 162.176727 259.668327 
L 162.176727 257.444509 
L 163.394182 257.444509 
L 163.394182 252.552109 
L 164.002909 252.552109 
L 164.002909 252.107345 
L 164.611636 252.107345 
L 164.611636 248.994 
L 165.220364 248.994 
L 165.220364 248.104473 
L 165.829091 248.104473 
L 165.829091 247.659709 
L 166.437818 247.659709 
L 166.437818 244.991127 
L 167.046545 244.991127 
L 167.046545 243.212073 
L 169.481455 243.212073 
L 169.481455 242.767309 
L 170.698909 242.767309 
L 170.698909 240.543491 
L 171.916364 240.543491 
L 171.916364 235.651091 
L 173.133818 235.651091 
L 173.133818 234.3168 
L 173.742545 234.3168 
L 173.742545 233.427273 
L 174.96 233.427273 
L 174.96 232.092982 
L 176.177455 232.092982 
L 176.177455 231.648218 
L 176.786182 231.648218 
L 176.786182 230.313927 
L 177.394909 230.313927 
L 177.394909 229.869164 
L 179.221091 229.869164 
L 179.221091 228.090109 
L 179.829818 228.090109 
L 179.829818 226.311055 
L 180.438545 226.311055 
L 180.438545 224.087236 
L 181.047273 224.087236 
L 181.047273 223.197709 
L 181.656 223.197709 
L 181.656 222.752945 
L 184.090909 222.752945 
L 184.090909 218.750073 
L 184.699636 218.750073 
L 184.699636 217.415782 
L 185.308364 217.415782 
L 185.308364 215.191964 
L 185.917091 215.191964 
L 185.917091 213.412909 
L 186.525818 213.412909 
L 186.525818 212.968145 
L 187.134545 212.968145 
L 187.134545 211.189091 
L 187.743273 211.189091 
L 187.743273 210.299564 
L 188.352 210.299564 
L 188.352 207.630982 
L 189.569455 207.630982 
L 189.569455 207.186218 
L 190.786909 207.186218 
L 190.786909 204.9624 
L 191.395636 204.9624 
L 191.395636 204.517636 
L 192.004364 204.517636 
L 192.004364 200.959527 
L 192.613091 200.959527 
L 192.613091 200.514764 
L 193.830545 200.514764 
L 193.830545 198.735709 
L 194.439273 198.735709 
L 194.439273 198.290945 
L 195.048 198.290945 
L 195.048 197.846182 
L 196.265455 197.846182 
L 196.265455 194.732836 
L 196.874182 194.732836 
L 196.874182 194.288073 
L 197.482909 194.288073 
L 197.482909 193.843309 
L 198.091636 193.843309 
L 198.091636 193.398545 
L 198.700364 193.398545 
L 198.700364 192.953782 
L 199.309091 192.953782 
L 199.309091 190.729964 
L 199.917818 190.729964 
L 199.917818 190.2852 
L 201.135273 190.2852 
L 201.135273 188.506145 
L 202.352727 188.506145 
L 202.352727 187.171855 
L 202.961455 187.171855 
L 202.961455 186.282327 
L 204.787636 186.282327 
L 204.787636 185.3928 
L 205.396364 185.3928 
L 205.396364 184.503273 
L 206.005091 184.503273 
L 206.005091 183.168982 
L 207.831273 183.168982 
L 207.831273 179.166109 
L 208.44 179.166109 
L 208.44 177.831818 
L 209.048727 177.831818 
L 209.048727 177.387055 
L 210.266182 177.387055 
L 210.266182 176.942291 
L 211.483636 176.942291 
L 211.483636 175.608 
L 212.092364 175.608 
L 212.092364 175.163236 
L 213.918545 175.163236 
L 213.918545 173.828945 
L 215.136 173.828945 
L 215.136 173.384182 
L 215.744727 173.384182 
L 215.744727 170.270836 
L 216.962182 170.270836 
L 216.962182 168.936545 
L 220.614545 168.936545 
L 220.614545 168.491782 
L 221.223273 168.491782 
L 221.223273 168.047018 
L 223.049455 168.047018 
L 223.049455 166.712727 
L 223.658182 166.712727 
L 223.658182 165.378436 
L 224.875636 165.378436 
L 224.875636 164.933673 
L 225.484364 164.933673 
L 225.484364 164.044145 
L 226.093091 164.044145 
L 226.093091 162.709855 
L 227.310545 162.709855 
L 227.310545 162.265091 
L 227.919273 162.265091 
L 227.919273 161.820327 
L 228.528 161.820327 
L 228.528 160.486036 
L 232.180364 160.486036 
L 232.180364 160.041273 
L 234.006545 160.041273 
L 234.006545 159.151745 
L 234.615273 159.151745 
L 234.615273 158.706982 
L 235.224 158.706982 
L 235.224 158.262218 
L 235.832727 158.262218 
L 235.832727 157.817455 
L 236.441455 157.817455 
L 236.441455 156.927927 
L 237.050182 156.927927 
L 237.050182 156.483164 
L 239.485091 156.483164 
L 239.485091 156.0384 
L 240.702545 156.0384 
L 240.702545 155.593636 
L 241.92 155.593636 
L 241.92 155.148873 
L 242.528727 155.148873 
L 242.528727 154.704109 
L 243.137455 154.704109 
L 243.137455 154.259345 
L 243.746182 154.259345 
L 243.746182 152.925055 
L 244.963636 152.925055 
L 244.963636 152.480291 
L 247.398545 152.480291 
L 247.398545 151.590764 
L 249.224727 151.590764 
L 249.224727 151.146 
L 250.442182 151.146 
L 250.442182 150.256473 
L 251.050909 150.256473 
L 251.050909 149.366945 
L 252.268364 149.366945 
L 252.268364 148.477418 
L 254.703273 148.477418 
L 254.703273 148.032655 
L 256.529455 148.032655 
L 256.529455 147.587891 
L 257.746909 147.587891 
L 257.746909 147.143127 
L 258.964364 147.143127 
L 258.964364 146.2536 
L 259.573091 146.2536 
L 259.573091 145.808836 
L 260.181818 145.808836 
L 260.181818 145.364073 
L 264.442909 145.364073 
L 264.442909 144.919309 
L 266.269091 144.919309 
L 266.269091 144.029782 
L 267.486545 144.029782 
L 267.486545 143.585018 
L 270.530182 143.585018 
L 270.530182 143.140255 
L 271.747636 143.140255 
L 271.747636 141.805964 
L 272.356364 141.805964 
L 272.356364 140.916436 
L 273.573818 140.916436 
L 273.573818 140.026909 
L 274.182545 140.026909 
L 274.182545 139.582145 
L 276.617455 139.582145 
L 276.617455 139.137382 
L 277.226182 139.137382 
L 277.226182 138.692618 
L 282.096 138.692618 
L 282.096 137.803091 
L 283.313455 137.803091 
L 283.313455 137.358327 
L 285.748364 137.358327 
L 285.748364 133.800218 
L 286.965818 133.800218 
L 286.965818 133.355455 
L 288.792 133.355455 
L 288.792 132.465927 
L 289.400727 132.465927 
L 289.400727 132.021164 
L 291.226909 132.021164 
L 291.226909 131.5764 
L 293.053091 131.5764 
L 293.053091 129.797345 
L 294.270545 129.797345 
L 294.270545 128.907818 
L 295.488 128.907818 
L 295.488 127.128764 
L 297.922909 127.128764 
L 297.922909 126.684 
L 298.531636 126.684 
L 298.531636 126.239236 
L 301.575273 126.239236 
L 301.575273 125.794473 
L 305.227636 125.794473 
L 305.227636 123.570655 
L 310.097455 123.570655 
L 310.097455 123.125891 
L 311.314909 123.125891 
L 311.314909 122.236364 
L 311.923636 122.236364 
L 311.923636 121.7916 
L 318.619636 121.7916 
L 318.619636 121.346836 
L 320.445818 121.346836 
L 320.445818 120.902073 
L 329.576727 120.902073 
L 329.576727 120.457309 
L 341.142545 120.457309 
L 341.142545 120.012545 
L 343.577455 120.012545 
L 343.577455 119.567782 
L 344.186182 119.567782 
L 344.186182 118.678255 
L 345.403636 118.678255 
L 345.403636 118.233491 
L 354.534545 118.233491 
L 354.534545 117.788727 
L 355.143273 117.788727 
L 355.143273 117.343964 
L 356.360727 117.343964 
L 356.360727 116.8992 
L 357.578182 116.8992 
L 357.578182 116.454436 
L 358.186909 116.454436 
L 358.186909 116.009673 
L 363.056727 116.009673 
L 363.056727 114.675382 
L 364.274182 114.675382 
L 364.274182 114.230618 
L 367.317818 114.230618 
L 367.317818 113.785855 
L 374.013818 113.785855 
L 374.013818 113.341091 
L 375.231273 113.341091 
L 375.231273 112.896327 
L 385.579636 112.896327 
L 385.579636 112.451564 
L 400.797818 112.451564 
L 400.797818 112.0068 
L 403.841455 112.0068 
L 403.841455 111.562036 
L 404.450182 111.562036 
L 404.450182 111.117273 
L 412.972364 111.117273 
L 412.972364 110.672509 
L 413.581091 110.672509 
L 413.581091 110.227745 
L 422.103273 110.227745 
L 422.103273 109.782982 
L 437.930182 109.782982 
L 437.930182 109.338218 
L 440.365091 109.338218 
L 440.365091 108.448691 
L 441.582545 108.448691 
L 441.582545 108.003927 
L 447.669818 108.003927 
L 447.669818 107.559164 
L 449.496 107.559164 
L 449.496 107.1144 
L 450.104727 107.1144 
L 450.104727 106.224873 
L 453.757091 106.224873 
L 453.757091 105.780109 
L 454.365818 105.780109 
L 454.365818 105.335345 
L 474.453818 105.335345 
L 474.453818 104.890582 
L 481.758545 104.890582 
L 481.758545 104.445818 
L 484.193455 104.445818 
L 484.193455 104.001055 
L 487.237091 104.001055 
L 487.237091 103.556291 
L 496.368 103.556291 
L 496.368 103.111527 
L 499.411636 103.111527 
L 499.411636 102.666764 
L 504.890182 102.666764 
L 504.890182 102.222 
L 506.716364 102.222 
L 506.716364 101.777236 
L 510.977455 101.777236 
L 510.977455 101.332473 
L 521.325818 101.332473 
L 521.325818 100.887709 
L 565.762909 100.887709 
L 565.762909 100.442945 
L 574.893818 100.442945 
L 574.893818 99.998182 
L 747.163636 99.998182 
L 747.163636 99.998182 
" style="fill:none;stroke:#1f77b4;stroke-linecap:square;stroke-width:1.5;"/>
   </g>
   <g id="line2d_15">
    <path clip-path="url(#pbee22e8e78)" d="M 138.436364 544.761818 
L 160.959273 179.610873 
L 172.525091 159.596509 
L 185.308364 141.805964 
L 206.613818 130.242109 
L 252.877091 116.009673 
L 747.163636 99.998182 
" style="fill:none;stroke:#ff7f0e;stroke-linecap:square;stroke-width:1.5;"/>
   </g>
   <g id="line2d_16">
    <path clip-path="url(#pbee22e8e78)" d="M 138.436364 544.761818 
L 138.436364 538.535127 
L 139.045091 538.535127 
L 139.045091 533.197964 
L 139.653818 533.197964 
L 139.653818 491.390182 
L 140.262545 491.390182 
L 140.262545 483.384436 
L 140.871273 483.384436 
L 140.871273 471.375818 
L 141.48 471.375818 
L 141.48 467.817709 
L 142.088727 467.817709 
L 142.088727 456.698618 
L 142.697455 456.698618 
L 142.697455 426.454691 
L 143.306182 426.454691 
L 143.306182 415.3356 
L 143.914909 415.3356 
L 143.914909 411.332727 
L 144.523636 411.332727 
L 144.523636 399.768873 
L 145.132364 399.768873 
L 145.132364 381.533564 
L 145.741091 381.533564 
L 145.741091 370.414473 
L 146.349818 370.414473 
L 146.349818 369.969709 
L 146.958545 369.969709 
L 146.958545 347.286764 
L 147.567273 347.286764 
L 147.567273 323.269527 
L 148.176 323.269527 
L 148.176 297.028473 
L 149.393455 297.028473 
L 149.393455 293.915127 
L 150.002182 293.915127 
L 150.002182 253.8864 
L 150.610909 253.8864 
L 150.610909 224.087236 
L 151.219636 224.087236 
L 151.219636 221.863418 
L 151.828364 221.863418 
L 151.828364 219.6396 
L 152.437091 219.6396 
L 152.437091 216.971018 
L 153.045818 216.971018 
L 153.045818 209.8548 
L 153.654545 209.8548 
L 153.654545 207.186218 
L 154.263273 207.186218 
L 154.263273 204.517636 
L 154.872 204.517636 
L 154.872 200.514764 
L 155.480727 200.514764 
L 155.480727 192.064255 
L 156.089455 192.064255 
L 156.089455 191.174727 
L 156.698182 191.174727 
L 156.698182 188.061382 
L 157.915636 188.061382 
L 157.915636 185.837564 
L 158.524364 185.837564 
L 158.524364 184.948036 
L 159.133091 184.948036 
L 159.133091 184.058509 
L 160.959273 184.058509 
L 160.959273 182.279455 
L 161.568 182.279455 
L 161.568 179.610873 
L 162.176727 179.610873 
L 162.176727 179.166109 
L 162.785455 179.166109 
L 162.785455 175.608 
L 163.394182 175.608 
L 163.394182 167.157491 
L 164.002909 167.157491 
L 164.002909 164.488909 
L 164.611636 164.488909 
L 164.611636 163.154618 
L 165.220364 163.154618 
L 165.220364 160.486036 
L 166.437818 160.486036 
L 166.437818 159.151745 
L 167.046545 159.151745 
L 167.046545 157.372691 
L 168.264 157.372691 
L 168.264 156.927927 
L 168.872727 156.927927 
L 168.872727 155.593636 
L 170.090182 155.593636 
L 170.090182 154.259345 
L 170.698909 154.259345 
L 170.698909 153.814582 
L 171.307636 153.814582 
L 171.307636 152.480291 
L 172.525091 152.480291 
L 172.525091 152.035527 
L 173.133818 152.035527 
L 173.133818 148.032655 
L 173.742545 148.032655 
L 173.742545 147.587891 
L 174.351273 147.587891 
L 174.351273 147.143127 
L 175.568727 147.143127 
L 175.568727 145.808836 
L 176.177455 145.808836 
L 176.177455 145.364073 
L 176.786182 145.364073 
L 176.786182 144.029782 
L 178.612364 144.029782 
L 178.612364 141.805964 
L 179.829818 141.805964 
L 179.829818 140.916436 
L 180.438545 140.916436 
L 180.438545 140.471673 
L 182.873455 140.471673 
L 182.873455 140.026909 
L 183.482182 140.026909 
L 183.482182 138.692618 
L 184.699636 138.692618 
L 184.699636 138.247855 
L 185.308364 138.247855 
L 185.308364 137.358327 
L 185.917091 137.358327 
L 185.917091 136.913564 
L 186.525818 136.913564 
L 186.525818 136.4688 
L 187.134545 136.4688 
L 187.134545 136.024036 
L 190.178182 136.024036 
L 190.178182 135.134509 
L 193.221818 135.134509 
L 193.221818 134.689745 
L 193.830545 134.689745 
L 193.830545 133.800218 
L 195.656727 133.800218 
L 195.656727 133.355455 
L 196.265455 133.355455 
L 196.265455 132.465927 
L 198.091636 132.465927 
L 198.091636 132.021164 
L 201.135273 132.021164 
L 201.135273 131.5764 
L 202.352727 131.5764 
L 202.352727 131.131636 
L 202.961455 131.131636 
L 202.961455 130.686873 
L 203.570182 130.686873 
L 203.570182 129.352582 
L 205.396364 129.352582 
L 205.396364 128.907818 
L 208.44 128.907818 
L 208.44 128.463055 
L 209.657455 128.463055 
L 209.657455 128.018291 
L 210.266182 128.018291 
L 210.266182 127.573527 
L 210.874909 127.573527 
L 210.874909 127.128764 
L 212.092364 127.128764 
L 212.092364 126.684 
L 213.309818 126.684 
L 213.309818 126.239236 
L 213.918545 126.239236 
L 213.918545 125.349709 
L 215.744727 125.349709 
L 215.744727 124.904945 
L 218.179636 124.904945 
L 218.179636 124.460182 
L 218.788364 124.460182 
L 218.788364 124.015418 
L 221.223273 124.015418 
L 221.223273 123.570655 
L 224.875636 123.570655 
L 224.875636 122.681127 
L 226.093091 122.681127 
L 226.093091 122.236364 
L 226.701818 122.236364 
L 226.701818 121.346836 
L 227.310545 121.346836 
L 227.310545 120.902073 
L 228.528 120.902073 
L 228.528 119.567782 
L 240.093818 119.567782 
L 240.093818 119.123018 
L 241.311273 119.123018 
L 241.311273 118.233491 
L 241.92 118.233491 
L 241.92 117.788727 
L 242.528727 117.788727 
L 242.528727 117.343964 
L 243.137455 117.343964 
L 243.137455 116.454436 
L 243.746182 116.454436 
L 243.746182 116.009673 
L 251.659636 116.009673 
L 251.659636 115.564909 
L 258.964364 115.564909 
L 258.964364 115.120145 
L 259.573091 115.120145 
L 259.573091 114.675382 
L 260.181818 114.675382 
L 260.181818 114.230618 
L 264.442909 114.230618 
L 264.442909 113.785855 
L 280.269818 113.785855 
L 280.269818 113.341091 
L 288.792 113.341091 
L 288.792 112.896327 
L 294.879273 112.896327 
L 294.879273 112.451564 
L 302.184 112.451564 
L 302.184 112.0068 
L 307.662545 112.0068 
L 307.662545 111.562036 
L 308.271273 111.562036 
L 308.271273 111.117273 
L 310.097455 111.117273 
L 310.097455 110.672509 
L 325.924364 110.672509 
L 325.924364 110.227745 
L 332.620364 110.227745 
L 332.620364 109.782982 
L 357.578182 109.782982 
L 357.578182 108.893455 
L 368.535273 108.893455 
L 368.535273 108.448691 
L 384.362182 108.448691 
L 384.362182 108.003927 
L 386.797091 108.003927 
L 386.797091 107.559164 
L 391.666909 107.559164 
L 391.666909 107.1144 
L 392.275636 107.1144 
L 392.275636 106.669636 
L 394.710545 106.669636 
L 394.710545 106.224873 
L 432.451636 106.224873 
L 432.451636 105.780109 
L 442.191273 105.780109 
L 442.191273 105.335345 
L 457.409455 105.335345 
L 457.409455 104.890582 
L 472.627636 104.890582 
L 472.627636 104.445818 
L 494.541818 104.445818 
L 494.541818 104.001055 
L 506.107636 104.001055 
L 506.107636 103.556291 
L 536.544 103.556291 
L 536.544 103.111527 
L 537.152727 103.111527 
L 537.152727 102.666764 
L 537.761455 102.666764 
L 537.761455 102.222 
L 549.327273 102.222 
L 549.327273 101.777236 
L 658.898182 101.777236 
L 658.898182 101.332473 
L 675.942545 101.332473 
L 675.942545 100.887709 
L 680.203636 100.887709 
L 680.203636 100.442945 
L 680.812364 100.442945 
L 680.812364 99.998182 
L 747.163636 99.998182 
L 747.163636 99.998182 
" style="fill:none;stroke:#2ca02c;stroke-linecap:square;stroke-width:1.5;"/>
   </g>
   <g id="line2d_17">
    <path clip-path="url(#pbee22e8e78)" d="M 138.436364 544.761818 
L 139.653818 533.642727 
L 139.653818 488.276836 
L 140.871273 452.695745 
L 141.48 443.355709 
L 141.48 429.123273 
L 142.088727 427.788982 
L 142.088727 425.565164 
L 143.306182 403.326982 
L 143.306182 361.5192 
L 143.914909 360.629673 
L 143.914909 335.722909 
L 144.523636 319.711418 
L 144.523636 306.813273 
L 145.741091 305.923745 
L 145.741091 298.807527 
L 146.349818 298.807527 
L 146.349818 288.577964 
L 146.958545 287.243673 
L 146.958545 278.793164 
L 147.567273 269.897891 
L 148.176 269.897891 
L 148.176 261.002618 
L 149.393455 244.546364 
L 150.002182 244.546364 
L 150.002182 240.988255 
L 150.610909 240.988255 
L 150.610909 228.090109 
L 151.219636 228.090109 
L 151.219636 217.860545 
L 151.828364 212.078618 
L 153.045818 210.299564 
L 153.045818 207.186218 
L 153.654545 204.9624 
L 153.654545 203.183345 
L 154.263273 202.293818 
L 154.263273 200.07 
L 154.872 199.180473 
L 154.872 197.846182 
L 155.480727 197.846182 
L 155.480727 196.956655 
L 156.089455 196.956655 
L 157.306909 196.511891 
L 157.306909 193.843309 
L 157.915636 193.398545 
L 157.915636 192.064255 
L 158.524364 192.064255 
L 158.524364 189.395673 
L 159.133091 188.950909 
L 159.741818 187.171855 
L 159.741818 186.727091 
L 162.176727 184.948036 
L 162.176727 184.503273 
L 162.785455 184.503273 
L 162.785455 183.613745 
L 163.394182 178.276582 
L 165.220364 172.049891 
L 165.220364 168.936545 
L 165.829091 168.936545 
L 165.829091 162.709855 
L 166.437818 162.709855 
L 166.437818 161.375564 
L 168.872727 155.148873 
L 168.872727 154.704109 
L 170.090182 153.814582 
L 170.698909 152.925055 
L 172.525091 148.477418 
L 172.525091 148.032655 
L 173.742545 148.032655 
L 173.742545 146.698364 
L 174.351273 146.698364 
L 174.96 146.2536 
L 174.96 145.808836 
L 178.003636 144.474545 
L 178.612364 144.029782 
L 178.612364 143.585018 
L 180.438545 141.805964 
L 181.656 141.805964 
L 181.656 139.582145 
L 182.264727 139.582145 
L 182.264727 139.137382 
L 183.482182 138.247855 
L 184.090909 138.247855 
L 184.090909 137.358327 
L 184.699636 136.913564 
L 185.308364 136.913564 
L 186.525818 136.4688 
L 187.134545 136.024036 
L 187.134545 135.579273 
L 188.352 133.800218 
L 188.352 133.355455 
L 189.569455 132.021164 
L 190.178182 131.5764 
L 193.830545 131.5764 
L 193.830545 131.131636 
L 194.439273 131.131636 
L 201.744 130.686873 
L 201.744 129.797345 
L 202.961455 129.797345 
L 202.961455 128.463055 
L 204.178909 128.018291 
L 211.483636 128.018291 
L 213.918545 127.128764 
L 215.744727 127.128764 
L 216.353455 126.239236 
L 217.570909 126.239236 
L 217.570909 125.794473 
L 218.788364 125.349709 
L 222.440727 125.349709 
L 231.571636 124.904945 
L 232.789091 124.015418 
L 232.789091 123.125891 
L 234.006545 123.125891 
L 239.485091 121.346836 
L 251.659636 121.346836 
L 254.703273 120.902073 
L 255.312 120.457309 
L 255.312 120.012545 
L 257.746909 120.012545 
L 258.355636 119.567782 
L 258.964364 119.567782 
L 260.181818 119.123018 
L 269.921455 119.123018 
L 271.747636 118.233491 
L 272.356364 118.233491 
L 272.356364 117.788727 
L 274.791273 117.788727 
L 274.791273 116.8992 
L 276.008727 116.8992 
L 276.617455 116.454436 
L 277.834909 116.454436 
L 277.834909 115.564909 
L 278.443636 115.120145 
L 290.618182 115.120145 
L 292.444364 114.230618 
L 297.922909 114.230618 
L 310.706182 112.451564 
L 313.749818 112.451564 
L 313.749818 112.0068 
L 324.098182 112.0068 
L 328.968 111.562036 
L 329.576727 111.117273 
L 350.882182 111.117273 
L 350.882182 110.227745 
L 352.099636 108.893455 
L 353.317091 108.893455 
L 355.143273 108.448691 
L 357.578182 108.448691 
L 358.186909 108.003927 
L 381.318545 108.003927 
L 383.144727 107.559164 
L 386.797091 107.559164 
L 391.666909 106.669636 
L 401.406545 106.669636 
L 409.928727 105.335345 
L 418.450909 105.335345 
L 419.059636 104.890582 
L 480.541091 103.111527 
L 485.410909 103.111527 
L 485.410909 102.666764 
L 512.194909 101.332473 
L 536.544 101.332473 
L 550.544727 100.887709 
L 560.284364 100.442945 
L 576.72 99.998182 
L 747.163636 99.998182 
L 747.163636 99.998182 
" style="fill:none;stroke:#d62728;stroke-linecap:square;stroke-width:1.5;"/>
   </g>
   <g id="line2d_18">
    <path clip-path="url(#pbee22e8e78)" d="M 138.436364 544.761818 
L 138.436364 543.427527 
L 139.045091 543.427527 
L 139.045091 506.956909 
L 139.653818 499.395927 
L 139.653818 490.945418 
L 140.262545 481.605382 
L 140.262545 425.1204 
L 140.871273 419.338473 
L 140.871273 397.100291 
L 141.48 387.315491 
L 142.088727 387.315491 
L 142.088727 381.533564 
L 142.697455 365.966836 
L 142.697455 354.402982 
L 143.306182 352.179164 
L 143.306182 345.952473 
L 143.914909 345.507709 
L 143.914909 341.060073 
L 144.523636 338.836255 
L 144.523636 327.717164 
L 145.132364 308.592327 
L 145.132364 288.577964 
L 145.741091 285.909382 
L 146.349818 279.682691 
L 146.349818 272.566473 
L 146.958545 270.787418 
L 146.958545 269.453127 
L 147.567273 267.674073 
L 147.567273 258.7788 
L 148.176 258.7788 
L 148.176 258.334036 
L 148.784727 257.889273 
L 148.784727 256.110218 
L 149.393455 255.220691 
L 149.393455 251.217818 
L 150.002182 251.217818 
L 151.219636 250.328291 
L 151.219636 246.770182 
L 151.828364 246.770182 
L 151.828364 238.764436 
L 152.437091 233.872036 
L 152.437091 231.203455 
L 153.045818 231.203455 
L 153.045818 224.532 
L 153.654545 220.973891 
L 154.263273 216.081491 
L 155.480727 215.191964 
L 155.480727 214.302436 
L 156.089455 214.302436 
L 156.089455 203.628109 
L 156.698182 203.628109 
L 156.698182 201.849055 
L 157.915636 200.959527 
L 159.133091 200.959527 
L 159.133091 197.401418 
L 159.741818 197.401418 
L 159.741818 193.398545 
L 160.959273 193.398545 
L 160.959273 186.727091 
L 162.176727 185.837564 
L 162.785455 184.503273 
L 162.785455 183.613745 
L 163.394182 181.834691 
L 163.394182 180.5004 
L 164.002909 179.166109 
L 164.002909 178.721345 
L 164.611636 177.831818 
L 165.829091 176.942291 
L 165.829091 173.828945 
L 166.437818 173.384182 
L 167.046545 171.160364 
L 167.046545 166.267964 
L 167.655273 166.267964 
L 167.655273 164.933673 
L 168.264 164.488909 
L 168.264 164.044145 
L 172.525091 161.375564 
L 172.525091 159.596509 
L 173.133818 159.151745 
L 173.133818 158.262218 
L 173.742545 158.262218 
L 174.351273 157.372691 
L 174.351273 154.704109 
L 175.568727 154.259345 
L 175.568727 153.814582 
L 176.177455 151.146 
L 176.786182 150.701236 
L 176.786182 150.256473 
L 177.394909 150.256473 
L 177.394909 149.811709 
L 178.612364 149.811709 
L 179.829818 149.366945 
L 182.264727 149.366945 
L 185.917091 148.477418 
L 185.917091 145.364073 
L 187.743273 145.364073 
L 187.743273 144.474545 
L 188.352 144.474545 
L 188.352 144.029782 
L 189.569455 144.029782 
L 189.569455 143.585018 
L 190.178182 143.140255 
L 193.830545 143.140255 
L 193.830545 142.250727 
L 194.439273 142.250727 
L 194.439273 141.3612 
L 195.048 140.916436 
L 196.265455 140.916436 
L 196.265455 140.471673 
L 196.874182 140.471673 
L 196.874182 140.026909 
L 197.482909 139.582145 
L 197.482909 139.137382 
L 198.091636 139.137382 
L 198.091636 138.247855 
L 200.526545 137.803091 
L 200.526545 135.579273 
L 201.135273 135.579273 
L 202.352727 134.689745 
L 202.352727 134.244982 
L 205.396364 134.244982 
L 205.396364 133.355455 
L 206.005091 132.910691 
L 206.005091 132.465927 
L 207.222545 132.465927 
L 207.222545 131.5764 
L 211.483636 130.242109 
L 212.092364 129.797345 
L 212.092364 128.463055 
L 212.701091 128.018291 
L 212.701091 127.573527 
L 218.179636 127.573527 
L 218.179636 127.128764 
L 218.788364 127.128764 
L 218.788364 126.684 
L 219.397091 126.239236 
L 219.397091 125.794473 
L 223.049455 125.794473 
L 223.049455 125.349709 
L 224.875636 125.349709 
L 225.484364 124.904945 
L 226.093091 124.904945 
L 226.093091 124.015418 
L 227.919273 124.015418 
L 227.919273 123.125891 
L 228.528 122.681127 
L 230.962909 122.236364 
L 234.006545 122.236364 
L 234.615273 121.346836 
L 235.832727 120.902073 
L 241.92 120.902073 
L 242.528727 120.457309 
L 250.442182 120.012545 
L 251.050909 119.123018 
L 252.268364 117.788727 
L 252.877091 117.788727 
L 253.485818 117.343964 
L 257.138182 117.343964 
L 260.790545 116.454436 
L 262.008 116.454436 
L 262.616727 116.009673 
L 263.834182 116.009673 
L 263.834182 115.564909 
L 268.095273 115.564909 
L 268.704 114.230618 
L 268.704 113.785855 
L 272.965091 112.896327 
L 274.791273 112.896327 
L 274.791273 112.451564 
L 281.487273 112.451564 
L 281.487273 112.0068 
L 285.748364 112.0068 
L 286.357091 111.562036 
L 294.879273 111.562036 
L 296.705455 111.117273 
L 302.792727 111.117273 
L 305.227636 110.227745 
L 313.749818 110.227745 
L 319.228364 109.338218 
L 327.750545 109.338218 
L 328.359273 108.893455 
L 335.664 108.893455 
L 347.838545 108.448691 
L 368.535273 108.448691 
L 369.144 107.559164 
L 394.710545 107.559164 
L 429.408 107.1144 
L 434.886545 106.669636 
L 465.322909 106.669636 
L 465.931636 106.224873 
L 465.931636 105.780109 
L 466.540364 105.780109 
L 470.801455 105.335345 
L 495.150545 105.335345 
L 495.759273 104.445818 
L 506.107636 104.445818 
L 524.369455 104.001055 
L 548.109818 104.001055 
L 548.109818 103.111527 
L 550.544727 103.111527 
L 550.544727 102.666764 
L 561.501818 102.666764 
L 563.936727 102.222 
L 567.589091 101.777236 
L 569.415273 101.777236 
L 642.462545 101.332473 
L 644.897455 100.887709 
L 660.115636 100.442945 
L 742.902545 100.442945 
L 744.12 99.998182 
L 747.163636 99.998182 
L 747.163636 99.998182 
" style="fill:none;stroke:#9467bd;stroke-linecap:square;stroke-width:1.5;"/>
   </g>
   <g id="line2d_19">
    <path clip-path="url(#pbee22e8e78)" d="M 138.436364 544.761818 
L 747.163636 99.998182 
" style="fill:none;stroke:#000000;stroke-dasharray:5.55,2.4;stroke-dashoffset:0;stroke-width:1.5;"/>
   </g>
   <g id="patch_3">
    <path d="M 108 567 
L 108 77.76 
" style="fill:none;stroke:#000000;stroke-linecap:square;stroke-linejoin:miter;stroke-width:0.8;"/>
   </g>
   <g id="patch_4">
    <path d="M 777.6 567 
L 777.6 77.76 
" style="fill:none;stroke:#000000;stroke-linecap:square;stroke-linejoin:miter;stroke-width:0.8;"/>
   </g>
   <g id="patch_5">
    <path d="M 108 567 
L 777.6 567 
" style="fill:none;stroke:#000000;stroke-linecap:square;stroke-linejoin:miter;stroke-width:0.8;"/>
   </g>
   <g id="patch_6">
    <path d="M 108 77.76 
L 777.6 77.76 
" style="fill:none;stroke:#000000;stroke-linecap:square;stroke-linejoin:miter;stroke-width:0.8;"/>
   </g>
   <g id="legend_1">
    <g id="patch_7">
     <path d="M 655.542187 562 
L 770.6 562 
Q 772.6 562 772.6 560 
L 772.6 472.93125 
Q 772.6 470.93125 770.6 470.93125 
L 655.542187 470.93125 
Q 653.542187 470.93125 653.542187 472.93125 
L 653.542187 560 
Q 653.542187 562 655.542187 562 
z
" style="fill:#ffffff;opacity:0.8;stroke:#cccccc;stroke-linejoin:miter;"/>
    </g>
    <g id="line2d_20">
     <path d="M 657.542187 479.029688 
L 677.542187 479.029688 
" style="fill:none;stroke:#ff0000;stroke-linecap:square;stroke-width:1.5;"/>
    </g>
    <g id="line2d_21"/>
    <g id="text_15">
     <!-- LR with k-means -->
     <defs>
      <path d="M 9.8125 72.90625 
L 19.671875 72.90625 
L 19.671875 8.296875 
L 55.171875 8.296875 
L 55.171875 0 
L 9.8125 0 
z
" id="DejaVuSans-76"/>
      <path d="M 4.203125 54.6875 
L 13.1875 54.6875 
L 24.421875 12.015625 
L 35.59375 54.6875 
L 46.1875 54.6875 
L 57.421875 12.015625 
L 68.609375 54.6875 
L 77.59375 54.6875 
L 63.28125 0 
L 52.6875 0 
L 40.921875 44.828125 
L 29.109375 0 
L 18.5 0 
z
" id="DejaVuSans-119"/>
      <path d="M 54.890625 33.015625 
L 54.890625 0 
L 45.90625 0 
L 45.90625 32.71875 
Q 45.90625 40.484375 42.875 44.328125 
Q 39.84375 48.1875 33.796875 48.1875 
Q 26.515625 48.1875 22.3125 43.546875 
Q 18.109375 38.921875 18.109375 30.90625 
L 18.109375 0 
L 9.078125 0 
L 9.078125 75.984375 
L 18.109375 75.984375 
L 18.109375 46.1875 
Q 21.34375 51.125 25.703125 53.5625 
Q 30.078125 56 35.796875 56 
Q 45.21875 56 50.046875 50.171875 
Q 54.890625 44.34375 54.890625 33.015625 
z
" id="DejaVuSans-104"/>
      <path d="M 9.078125 75.984375 
L 18.109375 75.984375 
L 18.109375 31.109375 
L 44.921875 54.6875 
L 56.390625 54.6875 
L 27.390625 29.109375 
L 57.625 0 
L 45.90625 0 
L 18.109375 26.703125 
L 18.109375 0 
L 9.078125 0 
z
" id="DejaVuSans-107"/>
      <path d="M 4.890625 31.390625 
L 31.203125 31.390625 
L 31.203125 23.390625 
L 4.890625 23.390625 
z
" id="DejaVuSans-45"/>
      <path d="M 52 44.1875 
Q 55.375 50.25 60.0625 53.125 
Q 64.75 56 71.09375 56 
Q 79.640625 56 84.28125 50.015625 
Q 88.921875 44.046875 88.921875 33.015625 
L 88.921875 0 
L 79.890625 0 
L 79.890625 32.71875 
Q 79.890625 40.578125 77.09375 44.375 
Q 74.3125 48.1875 68.609375 48.1875 
Q 61.625 48.1875 57.5625 43.546875 
Q 53.515625 38.921875 53.515625 30.90625 
L 53.515625 0 
L 44.484375 0 
L 44.484375 32.71875 
Q 44.484375 40.625 41.703125 44.40625 
Q 38.921875 48.1875 33.109375 48.1875 
Q 26.21875 48.1875 22.15625 43.53125 
Q 18.109375 38.875 18.109375 30.90625 
L 18.109375 0 
L 9.078125 0 
L 9.078125 54.6875 
L 18.109375 54.6875 
L 18.109375 46.1875 
Q 21.1875 51.21875 25.484375 53.609375 
Q 29.78125 56 35.6875 56 
Q 41.65625 56 45.828125 52.96875 
Q 50 49.953125 52 44.1875 
z
" id="DejaVuSans-109"/>
      <path d="M 54.890625 33.015625 
L 54.890625 0 
L 45.90625 0 
L 45.90625 32.71875 
Q 45.90625 40.484375 42.875 44.328125 
Q 39.84375 48.1875 33.796875 48.1875 
Q 26.515625 48.1875 22.3125 43.546875 
Q 18.109375 38.921875 18.109375 30.90625 
L 18.109375 0 
L 9.078125 0 
L 9.078125 54.6875 
L 18.109375 54.6875 
L 18.109375 46.1875 
Q 21.34375 51.125 25.703125 53.5625 
Q 30.078125 56 35.796875 56 
Q 45.21875 56 50.046875 50.171875 
Q 54.890625 44.34375 54.890625 33.015625 
z
" id="DejaVuSans-110"/>
     </defs>
     <g transform="translate(685.542187 482.529688)scale(0.1 -0.1)">
      <use xlink:href="#DejaVuSans-76"/>
      <use x="55.712891" xlink:href="#DejaVuSans-82"/>
      <use x="125.195312" xlink:href="#DejaVuSans-32"/>
      <use x="156.982422" xlink:href="#DejaVuSans-119"/>
      <use x="238.769531" xlink:href="#DejaVuSans-105"/>
      <use x="266.552734" xlink:href="#DejaVuSans-116"/>
      <use x="305.761719" xlink:href="#DejaVuSans-104"/>
      <use x="369.140625" xlink:href="#DejaVuSans-32"/>
      <use x="400.927734" xlink:href="#DejaVuSans-107"/>
      <use x="458.837891" xlink:href="#DejaVuSans-45"/>
      <use x="494.921875" xlink:href="#DejaVuSans-109"/>
      <use x="592.333984" xlink:href="#DejaVuSans-101"/>
      <use x="653.857422" xlink:href="#DejaVuSans-97"/>
      <use x="715.136719" xlink:href="#DejaVuSans-110"/>
      <use x="778.515625" xlink:href="#DejaVuSans-115"/>
     </g>
    </g>
    <g id="line2d_22">
     <path d="M 657.542187 493.707813 
L 677.542187 493.707813 
" style="fill:none;stroke:#1f77b4;stroke-linecap:square;stroke-width:1.5;"/>
    </g>
    <g id="line2d_23"/>
    <g id="text_16">
     <!-- LR -->
     <g transform="translate(685.542187 497.207813)scale(0.1 -0.1)">
      <use xlink:href="#DejaVuSans-76"/>
      <use x="55.712891" xlink:href="#DejaVuSans-82"/>
     </g>
    </g>
    <g id="line2d_24">
     <path d="M 657.542187 508.385938 
L 677.542187 508.385938 
" style="fill:none;stroke:#ff7f0e;stroke-linecap:square;stroke-width:1.5;"/>
    </g>
    <g id="line2d_25"/>
    <g id="text_17">
     <!-- kNN -->
     <defs>
      <path d="M 9.8125 72.90625 
L 23.09375 72.90625 
L 55.421875 11.921875 
L 55.421875 72.90625 
L 64.984375 72.90625 
L 64.984375 0 
L 51.703125 0 
L 19.390625 60.984375 
L 19.390625 0 
L 9.8125 0 
z
" id="DejaVuSans-78"/>
     </defs>
     <g transform="translate(685.542187 511.885938)scale(0.1 -0.1)">
      <use xlink:href="#DejaVuSans-107"/>
      <use x="57.910156" xlink:href="#DejaVuSans-78"/>
      <use x="132.714844" xlink:href="#DejaVuSans-78"/>
     </g>
    </g>
    <g id="line2d_26">
     <path d="M 657.542187 523.064063 
L 677.542187 523.064063 
" style="fill:none;stroke:#2ca02c;stroke-linecap:square;stroke-width:1.5;"/>
    </g>
    <g id="line2d_27"/>
    <g id="text_18">
     <!-- RBF SVM -->
     <defs>
      <path d="M 19.671875 34.8125 
L 19.671875 8.109375 
L 35.5 8.109375 
Q 43.453125 8.109375 47.28125 11.40625 
Q 51.125 14.703125 51.125 21.484375 
Q 51.125 28.328125 47.28125 31.5625 
Q 43.453125 34.8125 35.5 34.8125 
z
M 19.671875 64.796875 
L 19.671875 42.828125 
L 34.28125 42.828125 
Q 41.5 42.828125 45.03125 45.53125 
Q 48.578125 48.25 48.578125 53.8125 
Q 48.578125 59.328125 45.03125 62.0625 
Q 41.5 64.796875 34.28125 64.796875 
z
M 9.8125 72.90625 
L 35.015625 72.90625 
Q 46.296875 72.90625 52.390625 68.21875 
Q 58.5 63.53125 58.5 54.890625 
Q 58.5 48.1875 55.375 44.234375 
Q 52.25 40.28125 46.1875 39.3125 
Q 53.46875 37.75 57.5 32.78125 
Q 61.53125 27.828125 61.53125 20.40625 
Q 61.53125 10.640625 54.890625 5.3125 
Q 48.25 0 35.984375 0 
L 9.8125 0 
z
" id="DejaVuSans-66"/>
      <path d="M 53.515625 70.515625 
L 53.515625 60.890625 
Q 47.90625 63.578125 42.921875 64.890625 
Q 37.9375 66.21875 33.296875 66.21875 
Q 25.25 66.21875 20.875 63.09375 
Q 16.5 59.96875 16.5 54.203125 
Q 16.5 49.359375 19.40625 46.890625 
Q 22.3125 44.4375 30.421875 42.921875 
L 36.375 41.703125 
Q 47.40625 39.59375 52.65625 34.296875 
Q 57.90625 29 57.90625 20.125 
Q 57.90625 9.515625 50.796875 4.046875 
Q 43.703125 -1.421875 29.984375 -1.421875 
Q 24.8125 -1.421875 18.96875 -0.25 
Q 13.140625 0.921875 6.890625 3.21875 
L 6.890625 13.375 
Q 12.890625 10.015625 18.65625 8.296875 
Q 24.421875 6.59375 29.984375 6.59375 
Q 38.421875 6.59375 43.015625 9.90625 
Q 47.609375 13.234375 47.609375 19.390625 
Q 47.609375 24.75 44.3125 27.78125 
Q 41.015625 30.8125 33.5 32.328125 
L 27.484375 33.5 
Q 16.453125 35.6875 11.515625 40.375 
Q 6.59375 45.0625 6.59375 53.421875 
Q 6.59375 63.09375 13.40625 68.65625 
Q 20.21875 74.21875 32.171875 74.21875 
Q 37.3125 74.21875 42.625 73.28125 
Q 47.953125 72.359375 53.515625 70.515625 
z
" id="DejaVuSans-83"/>
      <path d="M 28.609375 0 
L 0.78125 72.90625 
L 11.078125 72.90625 
L 34.1875 11.53125 
L 57.328125 72.90625 
L 67.578125 72.90625 
L 39.796875 0 
z
" id="DejaVuSans-86"/>
      <path d="M 9.8125 72.90625 
L 24.515625 72.90625 
L 43.109375 23.296875 
L 61.8125 72.90625 
L 76.515625 72.90625 
L 76.515625 0 
L 66.890625 0 
L 66.890625 64.015625 
L 48.09375 14.015625 
L 38.1875 14.015625 
L 19.390625 64.015625 
L 19.390625 0 
L 9.8125 0 
z
" id="DejaVuSans-77"/>
     </defs>
     <g transform="translate(685.542187 526.564063)scale(0.1 -0.1)">
      <use xlink:href="#DejaVuSans-82"/>
      <use x="69.482422" xlink:href="#DejaVuSans-66"/>
      <use x="138.085938" xlink:href="#DejaVuSans-70"/>
      <use x="195.605469" xlink:href="#DejaVuSans-32"/>
      <use x="227.392578" xlink:href="#DejaVuSans-83"/>
      <use x="290.869141" xlink:href="#DejaVuSans-86"/>
      <use x="359.277344" xlink:href="#DejaVuSans-77"/>
     </g>
    </g>
    <g id="line2d_28">
     <path d="M 657.542187 537.742188 
L 677.542187 537.742188 
" style="fill:none;stroke:#d62728;stroke-linecap:square;stroke-width:1.5;"/>
    </g>
    <g id="line2d_29"/>
    <g id="text_19">
     <!-- Random Forest -->
     <defs>
      <path d="M 45.40625 46.390625 
L 45.40625 75.984375 
L 54.390625 75.984375 
L 54.390625 0 
L 45.40625 0 
L 45.40625 8.203125 
Q 42.578125 3.328125 38.25 0.953125 
Q 33.9375 -1.421875 27.875 -1.421875 
Q 17.96875 -1.421875 11.734375 6.484375 
Q 5.515625 14.40625 5.515625 27.296875 
Q 5.515625 40.1875 11.734375 48.09375 
Q 17.96875 56 27.875 56 
Q 33.9375 56 38.25 53.625 
Q 42.578125 51.265625 45.40625 46.390625 
z
M 14.796875 27.296875 
Q 14.796875 17.390625 18.875 11.75 
Q 22.953125 6.109375 30.078125 6.109375 
Q 37.203125 6.109375 41.296875 11.75 
Q 45.40625 17.390625 45.40625 27.296875 
Q 45.40625 37.203125 41.296875 42.84375 
Q 37.203125 48.484375 30.078125 48.484375 
Q 22.953125 48.484375 18.875 42.84375 
Q 14.796875 37.203125 14.796875 27.296875 
z
" id="DejaVuSans-100"/>
     </defs>
     <g transform="translate(685.542187 541.242188)scale(0.1 -0.1)">
      <use xlink:href="#DejaVuSans-82"/>
      <use x="69.451172" xlink:href="#DejaVuSans-97"/>
      <use x="130.730469" xlink:href="#DejaVuSans-110"/>
      <use x="194.109375" xlink:href="#DejaVuSans-100"/>
      <use x="257.585938" xlink:href="#DejaVuSans-111"/>
      <use x="318.767578" xlink:href="#DejaVuSans-109"/>
      <use x="416.179688" xlink:href="#DejaVuSans-32"/>
      <use x="447.966797" xlink:href="#DejaVuSans-70"/>
      <use x="505.439453" xlink:href="#DejaVuSans-111"/>
      <use x="566.621094" xlink:href="#DejaVuSans-114"/>
      <use x="607.703125" xlink:href="#DejaVuSans-101"/>
      <use x="669.226562" xlink:href="#DejaVuSans-115"/>
      <use x="721.326172" xlink:href="#DejaVuSans-116"/>
     </g>
    </g>
    <g id="line2d_30">
     <path d="M 657.542187 552.420313 
L 677.542187 552.420313 
" style="fill:none;stroke:#9467bd;stroke-linecap:square;stroke-width:1.5;"/>
    </g>
    <g id="line2d_31"/>
    <g id="text_20">
     <!-- Boosted Trees -->
     <g transform="translate(685.542187 555.920313)scale(0.1 -0.1)">
      <use xlink:href="#DejaVuSans-66"/>
      <use x="68.603516" xlink:href="#DejaVuSans-111"/>
      <use x="129.785156" xlink:href="#DejaVuSans-111"/>
      <use x="190.966797" xlink:href="#DejaVuSans-115"/>
      <use x="243.066406" xlink:href="#DejaVuSans-116"/>
      <use x="282.275391" xlink:href="#DejaVuSans-101"/>
      <use x="343.798828" xlink:href="#DejaVuSans-100"/>
      <use x="407.275391" xlink:href="#DejaVuSans-32"/>
      <use x="439.0625" xlink:href="#DejaVuSans-84"/>
      <use x="499.927734" xlink:href="#DejaVuSans-114"/>
      <use x="541.009766" xlink:href="#DejaVuSans-101"/>
      <use x="602.533203" xlink:href="#DejaVuSans-101"/>
      <use x="664.056641" xlink:href="#DejaVuSans-115"/>
     </g>
    </g>
   </g>
  </g>
 </g>
 <defs>
  <clipPath id="pbee22e8e78">
   <rect height="489.24" width="669.6" x="108" y="77.76"/>
  </clipPath>
 </defs>
</svg>
